<svg height="320" version="1.1" width="320" xmlns="http://www.w3.org/2000/svg" xmlns:xlink="http://www.w3.org/1999/xlink" style="overflow: hidden; position: relative; left: -0.5px; top: -0.796875px;" viewBox="0 0 320 320" preserveAspectRatio="xMidYMid meet" id="main_svg"><svg height="320" version="1.1" width="320" xmlns="http://www.w3.org/2000/svg" xmlns:xlink="http://www.w3.org/1999/xlink" style="overflow: hidden; position: relative;" viewBox="0 0 160 160" preserveAspectRatio="xMidYMid meet" id="imported_svg_layer_1"><path fill="#c8a185" stroke="none" d="M120.038,0H39.962C17.892,0,0,17.888,0,39.962V120.038C0,142.108,17.888,160,39.962,160H120.038C142.108,160,160,142.112,160,120.038V39.962C160,17.892,142.112,0,120.038,0Z" stroke-width="0" transform="matrix(1,0,0,1,0,0)" style="-webkit-tap-highlight-color: rgba(0, 0, 0, 0);"></path><desc style="-webkit-tap-highlight-color: rgba(0, 0, 0, 0);">Created with Logotizer</desc><defs style="-webkit-tap-highlight-color: rgba(0, 0, 0, 0);"></defs></svg><svg height="320" version="1.1" width="320" xmlns="http://www.w3.org/2000/svg" xmlns:xlink="http://www.w3.org/1999/xlink" style="overflow: hidden; position: relative;" viewBox="0 0 160 160" preserveAspectRatio="xMidYMid meet" id="imported_svg_layer_2"><desc style="-webkit-tap-highlight-color: rgba(0, 0, 0, 0);">Created with Logotizer</desc><defs style="-webkit-tap-highlight-color: rgba(0, 0, 0, 0);"></defs><path fill="#ffffff" stroke="#d5d5d5" d="M160,90L80,20L0,90H40V160H120V90H160" stroke-width="2" transform="matrix(1,0,0,1,0,0)" style="-webkit-tap-highlight-color: rgba(0, 0, 0, 0); display: none; cursor: move;"></path></svg><desc style="-webkit-tap-highlight-color: rgba(0, 0, 0, 0);">Created with Logotizer</desc><defs style="-webkit-tap-highlight-color: rgba(0, 0, 0, 0);"></defs><path fill="#0c7182" stroke="none" d="M-218.5,-75.12L-218.5,-91.88L-102.13,-150L-102.13,-121.88L-182.29,-84.73L-102.13,-51.8L-102.13,-23.79L-218.5,-75.12ZM-70.26,0L-70.26,-171.33L-33.93,-171.33L-33.93,-104.18L33.92,-104.18L33.92,-171.33L70.13,-171.33L70.13,0L33.92,0L33.92,-73.95L-33.93,-73.95L-33.93,0L-70.26,0ZM102.12,-23.79L102.12,-51.8L182.28,-84.73L102.12,-121.88L102.12,-150L218.49,-91.88L218.49,-75.12L102.12,-23.79Z" transform="matrix(0.76,0,0,0.76,160,223.8241)" style="-webkit-tap-highlight-color: rgba(0, 0, 0, 0);"></path></svg>